<svg width="600" height="400" viewBox="0 0 600 400" xmlns="http://www.w3.org/2000/svg">
  <rect width="600" height="400" fill="#DE2910"/>
  <!-- Large star -->
  <polygon points="150,50 164.27,95.11 211.35,95.11 173.54,122.39 187.81,167.5 150,140.22 112.19,167.5 126.46,122.39 88.65,95.11 135.73,95.11" fill="#FFDE00"/>
  <!-- Small star 1 -->
  <polygon points="255,45 260.85,60.3 277.11,60.3 263.63,70.2 269.48,85.5 255,75.6 240.52,85.5 246.37,70.2 232.89,60.3 249.15,60.3" fill="#FFDE00"/>
  <!-- Small star 2 -->
  <polygon points="275,85 280.85,100.3 297.11,100.3 283.63,110.2 289.48,125.5 275,115.6 260.52,125.5 266.37,110.2 252.89,100.3 269.15,100.3" fill="#FFDE00"/>
  <!-- Small star 3 -->
  <polygon points="275,135 280.85,150.3 297.11,150.3 283.63,160.2 289.48,175.5 275,165.6 260.52,175.5 266.37,160.2 252.89,150.3 269.15,150.3" fill="#FFDE00"/>
  <!-- Small star 4 -->
  <polygon points="255,175 260.85,190.3 277.11,190.3 263.63,200.2 269.48,215.5 255,205.6 240.52,215.5 246.37,200.2 232.89,190.3 249.15,190.3" fill="#FFDE00"/>
</svg>